<svg width="150" height="150" viewBox="0 0 150 150" fill="none" xmlns="http://www.w3.org/2000/svg">
<g clip-path="url(#clip0_171_355)">
<path d="M75 4C114.15 4 146 35.85 146 75C146 114.15 114.15 146 75 146C35.85 146 4 114.15 4 75C4 35.85 35.85 4 75 4ZM75 0C33.58 0 0 33.58 0 75C0 116.42 33.58 150 75 150C116.42 150 150 116.42 150 75C150 33.58 116.42 0 75 0Z" fill="#B91428"/>
<path d="M77.3799 81.4C77.3799 82.04 77.8999 82.57 78.5499 82.57C79.1999 82.57 79.7199 82.05 79.7199 81.4C79.7199 79.3 78.0899 77.73 76.1699 77.84V77.19C76.1699 76.55 75.6499 76.02 74.9999 76.02C74.3499 76.02 73.8299 76.54 73.8299 77.19V77.84C71.8999 77.71 70.2799 79.34 70.2799 81.4V83C70.2799 85.04 71.8999 86.71 73.8299 86.56V90.61C73.1699 90.69 72.6199 90.19 72.6199 89.38C72.6199 88.74 72.0999 88.21 71.4499 88.21C70.7999 88.21 70.2799 88.73 70.2799 89.38C70.2799 91.42 71.8999 93.09 73.8299 92.94V93.59C73.8299 94.23 74.3499 94.76 74.9999 94.76C75.6499 94.76 76.1699 94.24 76.1699 93.59V92.94C78.0799 93.05 79.7199 91.46 79.7199 89.38V87.78C79.7199 85.68 78.0899 84.11 76.1699 84.22V80.17C76.8099 80.06 77.3799 80.61 77.3799 81.4ZM73.8299 84.22C73.1699 84.3 72.6199 83.8 72.6199 82.99V81.39C72.6199 80.62 73.1899 80.04 73.8299 80.16V84.21V84.22ZM77.3799 87.78V89.38C77.3799 90.15 76.8199 90.73 76.1699 90.61V86.56C76.8099 86.45 77.3799 87 77.3799 87.79V87.78ZM80.3699 47.59C80.3699 44.63 77.9599 42.22 74.9999 42.22C72.0399 42.22 69.6299 44.63 69.6299 47.59C69.6299 50.55 72.0399 52.96 74.9999 52.96C77.9599 52.96 80.3699 50.55 80.3699 47.59ZM71.9699 47.59C71.9699 45.92 73.3299 44.56 74.9999 44.56C76.6699 44.56 78.0299 45.92 78.0299 47.59C78.0299 49.26 76.6699 50.62 74.9999 50.62C73.3299 50.62 71.9699 49.26 71.9699 47.59ZM74.9999 72.01C67.6299 72.01 61.6299 78.01 61.6299 85.38C61.6299 92.75 67.6299 98.75 74.9999 98.75C82.3699 98.75 88.3699 92.75 88.3699 85.38C88.3699 78.01 82.3699 72.01 74.9999 72.01ZM74.9999 96.43C68.9099 96.43 63.9599 91.48 63.9599 85.39C63.9599 79.3 68.9099 74.35 74.9999 74.35C81.0899 74.35 86.0399 79.3 86.0399 85.39C86.0399 91.48 81.0899 96.43 74.9999 96.43ZM109.61 65.29C112.31 65.46 114.87 63.49 114.84 60.62V57.12C114.82 56.79 114.71 56.36 114.23 56.09L77.8299 35.91C76.0599 34.93 73.9399 34.93 72.1699 35.91L57.4899 44.05C56.9299 44.36 56.7199 45.07 57.0399 45.64C57.3499 46.2 58.0599 46.41 58.6299 46.09L73.3099 37.95C74.3699 37.36 75.6399 37.36 76.7099 37.95L109.17 55.95H40.8399L53.7999 48.77C54.3599 48.46 54.5699 47.75 54.2499 47.18C53.9399 46.62 53.2299 46.41 52.6599 46.73L35.7699 56.1C35.4999 56.26 35.1499 56.59 35.1599 57.13V60.63C35.1399 63.38 37.6199 65.6 40.3899 65.3L44.4899 71.08V99.72L40.3899 105.5H37.8799C36.3799 105.5 35.1599 106.72 35.1599 108.22V112.11C35.1599 113.61 36.3799 114.83 37.8799 114.83H112.11C113.61 114.83 114.83 113.61 114.83 112.11V108.22C114.83 106.72 113.61 105.5 112.11 105.5H109.6L105.5 99.72V71.08L109.6 65.3L109.61 65.29ZM39.8299 62.95C38.5399 62.95 37.4999 61.9 37.4999 60.62V58.29H112.51V60.62C112.51 61.91 111.46 62.95 110.18 62.95H39.8299ZM94.9599 86.39C95.5999 86.39 96.1299 85.87 96.1299 85.22V71.86H103.17V98.91H96.1299V90.66C96.1299 90.02 95.6099 89.49 94.9599 89.49C94.3099 89.49 93.7899 90.01 93.7899 90.66V99.7L89.6899 105.48H60.3199L56.2199 99.7V71.06L60.3199 65.28H89.6899L93.7899 71.06V85.22C93.7899 85.86 94.3099 86.39 94.9599 86.39ZM43.2599 65.29H57.4499L54.4399 69.53H46.2699L43.2599 65.29ZM53.8699 71.86V98.91H46.8299V71.86H53.8699ZM46.2699 101.25H54.4399L57.4499 105.49H43.2599L46.2699 101.25ZM112.12 107.82C112.33 107.82 112.51 107.99 112.51 108.21V112.1C112.51 112.31 112.34 112.49 112.12 112.49H37.8799C37.6699 112.49 37.4899 112.32 37.4899 112.1V108.21C37.4899 108 37.6599 107.82 37.8799 107.82H112.11H112.12ZM106.74 105.49H92.5499L95.5599 101.25H103.73L106.74 105.49ZM103.73 69.53H95.5599L92.5499 65.29H106.74L103.73 69.53Z" fill="#B91428"/>
</g>
<defs>
<clipPath id="clip0_171_355">
<rect width="150" height="150" fill="white"/>
</clipPath>
</defs>
</svg>
