<svg width="46" height="48" viewBox="0 0 46 48" fill="none" xmlns="http://www.w3.org/2000/svg">
<path d="M1.70849 21.0031C1.70986 21.0021 1.71089 21.0007 1.71192 20.9996L20.0702 2.20684C20.8527 1.40542 21.8931 0.964294 22.9997 0.964294C24.1064 0.964294 25.1468 1.40542 25.9296 2.20684L44.2783 20.9901C44.2845 20.9965 44.291 21.0031 44.2968 21.0095C45.9037 22.664 45.901 25.3484 44.2889 26.9986C43.5524 27.7529 42.58 28.1895 41.54 28.2355C41.4974 28.2398 41.4549 28.2419 41.4119 28.2419H40.6806V42.0719C40.6806 44.809 38.5051 47.0357 35.8314 47.0357H28.649C27.9207 47.0357 27.3305 46.4311 27.3305 45.686V34.843C27.3305 33.5941 26.3379 32.5783 25.1179 32.5783H20.8816C19.6616 32.5783 18.6693 33.5941 18.6693 34.843V45.686C18.6693 46.4311 18.0791 47.0357 17.3508 47.0357H10.1685C7.4944 47.0357 5.31924 44.809 5.31924 42.0719V28.2419H4.64076C3.53447 28.2419 2.49409 27.8007 1.71089 26.999C0.0971107 25.3462 0.0964241 22.6569 1.70849 21.0031ZM3.57567 25.0904C3.86031 25.3817 4.23869 25.5424 4.64076 25.5424H6.63773C7.36599 25.5424 7.95622 26.1466 7.95622 26.8921V42.0719C7.95622 43.3204 8.94852 44.3362 10.1685 44.3362H16.0323V34.843C16.0323 32.1059 18.2075 29.8788 20.8816 29.8788H25.1179C27.792 29.8788 29.9675 32.1059 29.9675 34.843V44.3362H35.8314C37.051 44.3362 38.0436 43.3204 38.0436 42.0719V26.8921C38.0436 26.1466 38.6338 25.5424 39.3621 25.5424H41.3247C41.3453 25.541 41.3656 25.5399 41.3865 25.5396C41.7793 25.5325 42.1478 25.373 42.4238 25.09C43.011 24.4889 43.011 23.5107 42.4238 22.9093C42.4235 22.9093 42.4235 22.909 42.4231 22.9086L42.4221 22.9076L24.0645 4.11547C23.7802 3.82407 23.4022 3.66379 22.9997 3.66379C22.5977 3.66379 22.2196 3.82407 21.935 4.11547L3.5815 22.9037C3.57876 22.9065 3.57567 22.9093 3.57292 22.9121C2.98887 23.5142 2.9899 24.4903 3.57567 25.0904Z" fill="black"/>
</svg>
