<svg width="150" height="150" viewBox="0 0 150 150" fill="none" xmlns="http://www.w3.org/2000/svg">
<g clip-path="url(#clip0_170_309)">
<path d="M94.5599 26.98H55.4299C51.6899 26.98 48.6599 30.02 48.6599 33.75V113.21C48.6599 116.94 51.6799 119.98 55.4299 119.98H94.5599C98.2999 119.98 101.33 116.95 101.33 113.21V33.75C101.33 30.01 98.2999 26.98 94.5599 26.98ZM65.3399 31.09H84.6599C85.1499 31.09 85.5399 31.82 85.5399 32.72C85.5399 33.62 85.1399 34.35 84.6599 34.35H65.3399C64.8499 34.35 64.4599 33.62 64.4599 32.72C64.4599 31.82 64.8499 31.09 65.3399 31.09ZM74.9999 113.29C72.6199 113.29 70.6799 111.35 70.6799 108.97C70.6799 106.59 72.6199 104.65 74.9999 104.65C77.3799 104.65 79.3099 106.58 79.3099 108.97C79.3099 111.36 77.3699 113.29 74.9999 113.29ZM96.2599 98.49H53.7399V38.41H96.2599V98.49Z" fill="#B91428"/>
<path d="M75 4C114.15 4 146 35.85 146 75C146 114.15 114.15 146 75 146C35.85 146 4 114.15 4 75C4 35.85 35.85 4 75 4ZM75 0C33.58 0 0 33.58 0 75C0 116.42 33.58 150 75 150C116.42 150 150 116.42 150 75C150 33.58 116.42 0 75 0Z" fill="#B91428"/>
</g>
<defs>
<clipPath id="clip0_170_309">
<rect width="150" height="150" fill="white"/>
</clipPath>
</defs>
</svg>
