<svg width="150" height="150" viewBox="0 0 150 150" fill="none" xmlns="http://www.w3.org/2000/svg">
<g clip-path="url(#clip0_172_363)">
<path d="M75 4C114.15 4 146 35.85 146 75C146 114.15 114.15 146 75 146C35.85 146 4 114.15 4 75C4 35.85 35.85 4 75 4ZM75 0C33.58 0 0 33.58 0 75C0 116.42 33.58 150 75 150C116.42 150 150 116.42 150 75C150 33.58 116.42 0 75 0Z" fill="#B91428"/>
<path d="M110.95 37.89C109.45 37.89 107.94 38.43 106.75 39.5L96.2898 49.98H32.7698C31.6598 49.98 30.7598 50.88 30.7598 51.99V96.22C30.7598 97.33 31.6598 98.23 32.7698 98.23H117.22C118.33 98.23 119.23 97.33 119.23 96.22V51.99C119.23 50.88 118.33 49.98 117.22 49.98H114.02L115.63 48.39C117.95 45.8 117.74 41.82 115.15 39.5C113.95 38.43 112.45 37.89 110.95 37.89ZM111.19 47.14L107.99 43.94L109.6 42.35C110.04 41.91 110.61 41.69 111.19 41.69C111.76 41.69 112.32 41.9 112.76 42.33C112.76 42.33 112.77 42.34 112.78 42.35C113.66 43.22 113.67 44.63 112.8 45.51C112.8 45.51 112.79 45.52 112.78 45.53L111.19 47.14ZM87.8098 67.32L88.8798 63.06L105.17 46.77L108.37 49.97L92.0798 66.26L87.8198 67.33L87.8098 67.32ZM85.2898 72.1C85.3698 72.1 85.4498 72.1 85.5298 72.09L93.5698 70.08C93.9298 70 94.2498 69.81 94.5198 69.56L110.77 53.31C111.02 54.52 110.64 55.77 109.76 56.65L105.74 60.67C104.95 61.45 104.95 62.73 105.73 63.51C105.73 63.51 105.73 63.51 105.74 63.52C106.13 63.92 106.65 64.11 107.17 64.11C107.69 64.11 108.19 63.92 108.59 63.53C108.59 63.53 108.59 63.53 108.6 63.52L112.62 59.5C114.07 58.04 114.88 56.05 114.87 53.99H115.21V94.2H34.7898V53.99H92.2698L85.6298 60.6C85.3698 60.86 85.1898 61.19 85.1098 61.54L83.0998 69.58C82.9298 70.26 83.1298 70.99 83.6198 71.49C83.9998 71.86 84.5098 72.07 85.0398 72.07C85.0398 72.07 85.0398 72.07 85.0498 72.07C85.1298 72.07 85.2098 72.08 85.2898 72.08V72.1Z" fill="#B91428"/>
<path d="M48.8596 62.04C47.7496 62.04 46.8496 62.94 46.8496 64.05V64.35C43.8396 65.28 42.1496 68.48 43.0796 71.49C43.5396 72.99 44.5996 74.23 46.0096 74.93L49.9296 76.94C50.5096 77.24 50.8796 77.84 50.8796 78.49C50.8796 79.43 50.1096 80.2 49.1696 80.2H48.5696C47.6296 80.2 46.8596 79.43 46.8596 78.49V78.13C46.8596 77.02 45.9596 76.12 44.8496 76.12C43.7396 76.12 42.8396 77.02 42.8396 78.13V78.43C42.8396 80.93 44.4796 83.13 46.8596 83.86V84.16C46.8596 85.27 47.7596 86.17 48.8696 86.17C49.9796 86.17 50.8796 85.27 50.8796 84.16V83.86C53.8896 82.93 55.5796 79.73 54.6496 76.72C54.1896 75.22 53.1296 73.98 51.7196 73.28L47.7996 71.27C47.2196 70.97 46.8496 70.37 46.8596 69.72C46.8596 68.78 47.6296 68.01 48.5696 68.01H49.1696C50.1096 68.01 50.8796 68.78 50.8796 69.72V70.08C50.8796 71.19 51.7796 72.09 52.8896 72.09C53.9996 72.09 54.8996 71.19 54.8996 70.08V69.78C54.8996 67.28 53.2596 65.08 50.8796 64.35V64.05C50.8796 62.94 49.9796 62.04 48.8696 62.04H48.8596Z" fill="#B91428"/>
<path d="M79.0199 62.04H64.9499C63.8399 62.04 62.9399 62.94 62.9399 64.05C62.9399 65.16 63.8399 66.06 64.9499 66.06H79.0199C80.1299 66.06 81.0299 65.16 81.0299 64.05C81.0299 62.94 80.1299 62.04 79.0199 62.04Z" fill="#B91428"/>
<path d="M79.0199 70.08H64.9499C63.8399 70.08 62.9399 70.98 62.9399 72.09C62.9399 73.2 63.8399 74.1 64.9499 74.1H79.0199C80.1299 74.1 81.0299 73.2 81.0299 72.09C81.0299 70.98 80.1299 70.08 79.0199 70.08Z" fill="#B91428"/>
<path d="M103.15 78.12H64.9499C63.8399 78.12 62.9399 79.02 62.9399 80.13C62.9399 81.24 63.8399 82.14 64.9499 82.14H103.15C104.26 82.14 105.16 81.24 105.16 80.13C105.16 79.02 104.26 78.12 103.15 78.12Z" fill="#B91428"/>
<path d="M103.15 86.16H64.9499C63.8399 86.16 62.9399 87.06 62.9399 88.17C62.9399 89.28 63.8399 90.18 64.9499 90.18H103.15C104.26 90.18 105.16 89.28 105.16 88.17C105.16 87.06 104.26 86.16 103.15 86.16Z" fill="#B91428"/>
</g>
<defs>
<clipPath id="clip0_172_363">
<rect width="150" height="150" fill="white"/>
</clipPath>
</defs>
</svg>
