<svg width="150" height="150" viewBox="0 0 150 150" fill="none" xmlns="http://www.w3.org/2000/svg">
<g clip-path="url(#clip0_171_326)">
<path d="M75 4C114.15 4 146 35.85 146 75C146 114.15 114.15 146 75 146C35.85 146 4 114.15 4 75C4 35.85 35.85 4 75 4ZM75 0C33.58 0 0 33.58 0 75C0 116.42 33.58 150 75 150C116.42 150 150 116.42 150 75C150 33.58 116.42 0 75 0Z" fill="#B91428"/>
<path d="M74.9997 72.4C76.4697 72.4 77.6597 73.59 77.6597 75.06C77.6597 75.79 78.2597 76.39 78.9897 76.39C79.7197 76.39 80.3197 75.79 80.3197 75.06C80.3197 72.58 78.6197 70.5 76.3297 69.91V68.41C76.3297 67.68 75.7297 67.08 74.9997 67.08C74.2697 67.08 73.6697 67.68 73.6697 68.41V69.91C71.3797 70.5 69.6797 72.59 69.6797 75.06C69.6797 78 72.0697 80.38 74.9997 80.38C76.4697 80.38 77.6597 81.57 77.6597 83.04C77.6597 84.51 76.4697 85.7 74.9997 85.7C73.5297 85.7 72.3397 84.51 72.3397 83.04C72.3397 82.31 71.7397 81.71 71.0097 81.71C70.2797 81.71 69.6797 82.31 69.6797 83.04C69.6797 85.52 71.3797 87.6 73.6697 88.19V89.69C73.6697 90.42 74.2697 91.02 74.9997 91.02C75.7297 91.02 76.3297 90.42 76.3297 89.69V88.19C78.6197 87.6 80.3197 85.51 80.3197 83.04C80.3197 80.1 77.9297 77.72 74.9997 77.72C73.5297 77.72 72.3397 76.53 72.3397 75.06C72.3397 73.59 73.5297 72.4 74.9997 72.4Z" fill="#B91428"/>
<path d="M74.9997 61.75C65.4597 61.75 57.6997 69.51 57.6997 79.05C57.6997 88.59 65.4597 96.35 74.9997 96.35C84.5397 96.35 92.2997 88.59 92.2997 79.05C92.2997 69.51 84.5397 61.75 74.9997 61.75ZM74.9997 93.69C66.9297 93.69 60.3597 87.12 60.3597 79.05C60.3597 70.98 66.9297 64.41 74.9997 64.41C83.0697 64.41 89.6397 70.98 89.6397 79.05C89.6397 87.12 83.0697 93.69 74.9997 93.69Z" fill="#B91428"/>
<path d="M113.43 56.43L112.58 49.62C112.3 47.42 110.29 45.86 108.07 46.16L106.14 46.44L104.89 41.44C104.36 39.3 102.17 37.96 99.9699 38.56L36.2099 56.44C34.0999 56.55 32.4199 58.29 32.4199 60.43V97.69C32.4199 99.89 34.2099 101.68 36.4099 101.68H113.59C115.79 101.68 117.58 99.89 117.58 97.69V60.43C117.58 58.37 115.98 56.44 113.43 56.44V56.43ZM108.44 48.8C109.18 48.7 109.85 49.22 109.94 49.95L110.75 56.43H55.1099L108.44 48.8ZM100.67 41.12C101.39 40.93 102.13 41.36 102.31 42.08L103.49 46.82L56.2499 53.58L100.67 41.12ZM114.92 97.68C114.92 98.41 114.32 99.01 113.59 99.01H36.4099C35.6799 99.01 35.0799 98.41 35.0799 97.68V60.42C35.0799 59.69 35.6799 59.09 36.4099 59.09C36.8299 59.09 29.7699 59.09 113.59 59.09C114.32 59.09 114.92 59.69 114.92 60.42V97.68Z" fill="#B91428"/>
<path d="M110.93 65.74C109.46 65.74 108.27 64.55 108.27 63.08C108.27 62.35 107.67 61.75 106.94 61.75H89.6401C88.9101 61.75 88.3101 62.35 88.3101 63.08C88.3101 63.81 88.9101 64.41 89.6401 64.41H105.78C106.26 66.28 107.74 67.75 109.6 68.23V89.86C107.73 90.34 106.26 91.82 105.78 93.68H89.6401C88.9101 93.68 88.3101 94.28 88.3101 95.01C88.3101 95.74 88.9101 96.34 89.6401 96.34H106.94C107.67 96.34 108.27 95.74 108.27 95.01C108.27 93.54 109.46 92.35 110.93 92.35C111.66 92.35 112.26 91.75 112.26 91.02V67.07C112.26 66.34 111.66 65.74 110.93 65.74Z" fill="#B91428"/>
<path d="M60.3597 93.69H44.2197C43.7397 91.82 42.2597 90.35 40.3997 89.87V68.24C42.2697 67.76 43.7397 66.28 44.2197 64.42H60.3597C61.0897 64.42 61.6897 63.82 61.6897 63.09C61.6897 62.36 61.0897 61.76 60.3597 61.76H43.0597C42.3297 61.76 41.7297 62.36 41.7297 63.09C41.7297 64.56 40.5397 65.75 39.0697 65.75C38.3397 65.75 37.7397 66.35 37.7397 67.08V91.03C37.7397 91.76 38.3397 92.36 39.0697 92.36C40.5397 92.36 41.7297 93.55 41.7297 95.02C41.7297 95.75 42.3297 96.35 43.0597 96.35H60.3597C61.0897 96.35 61.6897 95.75 61.6897 95.02C61.6897 94.29 61.0897 93.69 60.3597 93.69Z" fill="#B91428"/>
<path d="M44.3901 79.05C44.3901 81.25 46.1801 83.04 48.3801 83.04C50.5801 83.04 52.3701 81.25 52.3701 79.05C52.3701 76.85 50.5801 75.06 48.3801 75.06C46.1801 75.06 44.3901 76.85 44.3901 79.05ZM49.7201 79.05C49.7201 79.78 49.1201 80.38 48.3901 80.38C47.6601 80.38 47.0601 79.78 47.0601 79.05C47.0601 78.32 47.6601 77.72 48.3901 77.72C49.1201 77.72 49.7201 78.32 49.7201 79.05Z" fill="#B91428"/>
<path d="M105.61 79.05C105.61 76.85 103.82 75.06 101.62 75.06C99.4199 75.06 97.6299 76.85 97.6299 79.05C97.6299 81.25 99.4199 83.04 101.62 83.04C103.82 83.04 105.61 81.25 105.61 79.05ZM100.28 79.05C100.28 78.32 100.88 77.72 101.61 77.72C102.34 77.72 102.94 78.32 102.94 79.05C102.94 79.78 102.34 80.38 101.61 80.38C100.88 80.38 100.28 79.78 100.28 79.05Z" fill="#B91428"/>
</g>
<defs>
<clipPath id="clip0_171_326">
<rect width="150" height="150" fill="white"/>
</clipPath>
</defs>
</svg>
