<svg width="56" height="38" viewBox="0 0 56 38" fill="none" xmlns="http://www.w3.org/2000/svg">
<g clip-path="url(#clip0_33_177)">
<path d="M50.9753 38H5.0255C3.81605 38 2.68003 37.5421 1.82616 36.7113C0.972293 35.8822 0.501221 34.7779 0.501221 33.6023V4.39846C0.501221 3.22287 0.972293 2.11864 1.82699 1.28867C2.67921 0.457889 3.81605 0 5.0255 0H50.9761C52.1856 0 53.3216 0.457889 54.1754 1.28867C55.0293 2.11784 55.5004 3.22207 55.5004 4.39766V33.6015C55.5004 34.7771 55.0293 35.8814 54.1746 36.7113C53.3216 37.5413 52.1856 37.9992 50.9761 37.9992L50.9753 38ZM5.0255 1.92458C4.3457 1.92458 3.70715 2.18199 3.22701 2.6487C2.74521 3.11621 2.48121 3.73689 2.48121 4.39766V33.6015C2.48121 34.2623 2.74603 34.883 3.22618 35.3497C3.70715 35.818 4.3457 36.0746 5.0255 36.0746H50.9761C51.6559 36.0746 52.2945 35.8172 52.7746 35.3505C53.2564 34.883 53.5204 34.2623 53.5204 33.6015V4.39846C53.5204 3.73769 53.2556 3.11702 52.7754 2.6503C52.2945 2.18199 51.6559 1.92538 50.9761 1.92538H5.0255V1.92458Z" fill="black"/>
<path d="M17.3959 24.2569C14.4136 24.2569 11.9881 21.8985 11.9881 18.9996C11.9881 16.1007 14.4144 13.7423 17.3959 13.7423C20.3775 13.7423 22.8046 16.1007 22.8046 18.9996C22.8046 21.8985 20.3783 24.2569 17.3959 24.2569ZM17.3959 15.6677C15.5059 15.6677 13.9681 17.1624 13.9681 19.0004C13.9681 20.8384 15.5059 22.3331 17.3959 22.3331C19.286 22.3331 20.8246 20.8384 20.8246 19.0004C20.8246 17.1624 19.2868 15.6677 17.3959 15.6677Z" fill="black"/>
<path d="M24.4653 31.1284H10.3265C9.77954 31.1284 9.33652 30.6978 9.33652 30.1661C9.33652 25.8462 12.9517 22.3323 17.3959 22.3323C21.8402 22.3323 25.4553 25.8462 25.4553 30.1661C25.4553 30.6978 25.0123 31.1284 24.4653 31.1284ZM11.3974 29.2038H23.3953C22.9209 26.4012 20.4113 24.2569 17.3967 24.2569C14.3822 24.2569 11.8717 26.4012 11.3982 29.2038H11.3974Z" fill="black"/>
<path d="M45.6735 17.3854H33.3018C32.7549 17.3854 32.3118 16.9548 32.3118 16.4231C32.3118 15.8914 32.7549 15.4608 33.3018 15.4608H45.6735C46.2204 15.4608 46.6635 15.8914 46.6635 16.4231C46.6635 16.9548 46.2204 17.3854 45.6735 17.3854Z" fill="black"/>
<path d="M45.6735 8.79616H10.3265C9.77954 8.79616 9.33652 8.36554 9.33652 7.83387C9.33652 7.30221 9.77954 6.87158 10.3265 6.87158H45.6735C46.2204 6.87158 46.6635 7.30221 46.6635 7.83387C46.6635 8.36554 46.2204 8.79616 45.6735 8.79616Z" fill="black"/>
<path d="M45.6735 24.2569H33.3018C32.7549 24.2569 32.3118 23.8262 32.3118 23.2946C32.3118 22.7629 32.7549 22.3323 33.3018 22.3323H45.6735C46.2204 22.3323 46.6635 22.7629 46.6635 23.2946C46.6635 23.8262 46.2204 24.2569 45.6735 24.2569Z" fill="black"/>
<path d="M42.1384 31.1284H33.3018C32.7549 31.1284 32.3118 30.6978 32.3118 30.1661C32.3118 29.6345 32.7549 29.2039 33.3018 29.2039H42.1384C42.6853 29.2039 43.1284 29.6345 43.1284 30.1661C43.1284 30.6978 42.6853 31.1284 42.1384 31.1284Z" fill="black"/>
</g>
<defs>
<clipPath id="clip0_33_177">
<rect width="55" height="38" fill="white" transform="translate(0.5)"/>
</clipPath>
</defs>
</svg>
