<svg width="36" height="45" viewBox="0 0 36 45" fill="none" xmlns="http://www.w3.org/2000/svg">
<path d="M34.7524 10.9329L24.2058 0.386279C23.9596 0.14001 23.6236 0 23.2734 0H4.81641C2.63558 0 0.861328 1.77425 0.861328 3.95508V41.0449C0.861328 43.2258 2.63558 45 4.81641 45H31.1836C33.3644 45 35.1387 43.2258 35.1387 41.0449V11.8652C35.1387 11.5058 34.9878 11.1682 34.7524 10.9329ZM24.5918 4.50114L30.6375 10.5469H25.9102C25.1832 10.5469 24.5918 9.95546 24.5918 9.22852V4.50114ZM31.1836 42.3633H4.81641C4.08946 42.3633 3.49805 41.7719 3.49805 41.0449V3.95508C3.49805 3.22813 4.08946 2.63672 4.81641 2.63672H21.9551V9.22852C21.9551 11.4093 23.7293 13.1836 25.9102 13.1836H32.502V41.0449C32.502 41.7719 31.9105 42.3633 31.1836 42.3633Z" fill="black"/>
<path d="M25.9102 18.6328H10.0898C9.36176 18.6328 8.77148 19.2231 8.77148 19.9512C8.77148 20.6793 9.36176 21.2695 10.0898 21.2695H25.9102C26.6382 21.2695 27.2285 20.6793 27.2285 19.9512C27.2285 19.2231 26.6382 18.6328 25.9102 18.6328Z" fill="black"/>
<path d="M25.9102 23.9062H10.0898C9.36176 23.9062 8.77148 24.4965 8.77148 25.2246C8.77148 25.9527 9.36176 26.543 10.0898 26.543H25.9102C26.6382 26.543 27.2285 25.9527 27.2285 25.2246C27.2285 24.4965 26.6382 23.9062 25.9102 23.9062Z" fill="black"/>
<path d="M25.9102 29.1797H10.0898C9.36176 29.1797 8.77148 29.77 8.77148 30.498C8.77148 31.2261 9.36176 31.8164 10.0898 31.8164H25.9102C26.6382 31.8164 27.2285 31.2261 27.2285 30.498C27.2285 29.77 26.6382 29.1797 25.9102 29.1797Z" fill="black"/>
<path d="M20.6367 34.4531H10.0898C9.36176 34.4531 8.77148 35.0434 8.77148 35.7715C8.77148 36.4996 9.36176 37.0898 10.0898 37.0898H20.6367C21.3648 37.0898 21.9551 36.4996 21.9551 35.7715C21.9551 35.0434 21.3648 34.4531 20.6367 34.4531Z" fill="black"/>
</svg>
