<svg width="150" height="150" viewBox="0 0 150 150" fill="none" xmlns="http://www.w3.org/2000/svg">
<g clip-path="url(#clip0_170_317)">
<path d="M75 4C114.15 4 146 35.85 146 75C146 114.15 114.15 146 75 146C35.85 146 4 114.15 4 75C4 35.85 35.85 4 75 4ZM75 0C33.58 0 0 33.58 0 75C0 116.42 33.58 150 75 150C116.42 150 150 116.42 150 75C150 33.58 116.42 0 75 0Z" fill="#B91428"/>
<path d="M105.89 53.25L87.4501 34.81C87.0201 34.38 86.4301 34.13 85.8201 34.13H53.5401C49.7301 34.13 46.6201 37.23 46.6201 41.05V105.91C46.6201 109.72 49.7201 112.83 53.5401 112.83H99.6501C103.46 112.83 106.57 109.73 106.57 105.91V54.88C106.57 54.25 106.31 53.66 105.89 53.25ZM88.1201 42L98.6901 52.57H90.4201C89.1501 52.57 88.1101 51.54 88.1101 50.26V41.99L88.1201 42ZM99.6501 108.21H53.5401C52.2701 108.21 51.2301 107.18 51.2301 105.9V41.05C51.2301 39.78 52.2601 38.74 53.5401 38.74H83.5101V50.27C83.5101 54.08 86.6101 57.19 90.4301 57.19H101.96V105.91C101.96 107.18 100.93 108.22 99.6501 108.22V108.21Z" fill="#B91428"/>
<path d="M90.4302 66.72H62.7602C61.4902 66.72 60.4502 67.75 60.4502 69.03C60.4502 70.31 61.4802 71.34 62.7602 71.34H90.4302C91.7002 71.34 92.7402 70.31 92.7402 69.03C92.7402 67.75 91.7102 66.72 90.4302 66.72Z" fill="#B91428"/>
<path d="M90.4302 75.94H62.7602C61.4902 75.94 60.4502 76.97 60.4502 78.25C60.4502 79.53 61.4802 80.56 62.7602 80.56H90.4302C91.7002 80.56 92.7402 79.53 92.7402 78.25C92.7402 76.97 91.7102 75.94 90.4302 75.94Z" fill="#B91428"/>
<path d="M90.4302 85.16H62.7602C61.4902 85.16 60.4502 86.19 60.4502 87.47C60.4502 88.75 61.4802 89.78 62.7602 89.78H90.4302C91.7002 89.78 92.7402 88.75 92.7402 87.47C92.7402 86.19 91.7102 85.16 90.4302 85.16Z" fill="#B91428"/>
<path d="M81.21 94.38H62.77C61.5 94.38 60.46 95.41 60.46 96.69C60.46 97.97 61.49 99 62.77 99H81.21C82.48 99 83.52 97.97 83.52 96.69C83.52 95.41 82.49 94.38 81.21 94.38Z" fill="#B91428"/>
</g>
<defs>
<clipPath id="clip0_170_317">
<rect width="150" height="150" fill="white"/>
</clipPath>
</defs>
</svg>
