<svg width="99" height="42" viewBox="0 0 99 42" fill="none" xmlns="http://www.w3.org/2000/svg">
<g clip-path="url(#clip0_295_67)">
<path d="M15.9209 41.1831C15.268 41.6222 14.2311 41.2667 14.0164 40.4668C13.6934 39.3842 13.2238 37.8147 12.8398 36.5241C12.138 34.0178 8.20321 34.1138 7.63586 36.6575C7.40892 37.5942 7.18373 38.5772 6.96028 39.5016C4.51107 46.9762 -2.22731 29.8956 0.752593 27.4888C3.46016 30.7809 10.8025 29.6183 13.5084 27.3751C18.103 23.3347 16.8165 16.0325 10.0257 14.278C10.0048 14.0523 9.98905 13.823 9.98207 13.5954C9.95065 12.7813 9.99429 11.9636 10.1095 11.1584C10.5424 8.14901 11.9931 5.30847 14.4895 3.49003H14.4912C14.458 2.33284 14.8316 0.622835 16.2526 0.615725C15.8808 1.51161 15.9104 2.4555 15.8092 3.3976C16.9369 3.78866 22.3538 5.66754 19.9203 7.29045C19.4175 7.34022 18.8938 7.13225 18.5569 7.69218C16.2351 11.4215 19.016 15.4974 20.156 19.0348C22.1269 25.7184 21.481 37.1712 15.9192 41.1813L15.9209 41.1831Z" fill="#F2F3F4"/>
<path d="M12.1041 16.197C9.62685 14.6017 9.098 15.3333 8.24557 14.8176C7.77413 14.5321 9.35547 12.9688 9.34329 11.9266C9.34155 11.7303 9.24587 11.5376 9.07364 11.4502C8.5935 11.2021 8.1986 11.9713 7.74455 11.2664C7.45055 11.013 7.11306 11.1147 6.86255 11.3377C6.59812 11.5715 6.21888 11.6108 5.93184 11.4056C5.78919 11.3038 5.64306 11.2093 5.48475 11.2093C4.97329 11.211 4.75758 12.0605 4.23046 11.9338C4.16783 11.9195 3.67899 11.6143 3.62158 12.2479C3.43718 14.2715 5.3073 15.0603 5.21684 15.3173C5.16465 15.4636 4.07041 15.5814 3.20233 16.181C-2.07229 20.6905 -0.896285 29.0653 7.2157 28.3712C9.45115 28.2159 12.0258 27.1148 12.7982 26.4456C14.8789 24.645 17.2204 19.4913 12.1041 16.1953V16.197ZM7.10958 12.073C7.28181 11.7286 7.34791 12.7618 7.38966 13.6148C7.43142 14.4571 6.96693 14.3483 6.91474 13.9414C6.85385 13.4667 6.91822 12.4584 7.10958 12.073ZM7.76021 14.8818C7.99854 14.9461 7.72194 15.4011 6.7112 15.51C6.06231 15.5814 5.44126 15.2887 5.68655 15.2709C7.38097 15.137 7.41054 14.7873 7.76195 14.8818H7.76021ZM5.09333 12.6815C5.38385 13.9682 5.79093 13.34 5.79441 14.4303C5.79441 14.657 5.38559 14.673 5.09159 13.7023C4.85326 12.9135 4.86891 12.4566 5.09333 12.6797V12.6815ZM6.51984 23.1674C7.73933 24.1257 9.9974 22.0253 7.47839 22.0128C5.70568 21.6542 5.39603 20.3586 6.06753 19.5538C6.52506 19.0059 6.84341 19.0969 6.82428 18.8899C6.76861 18.2742 6.57377 17.8799 6.99824 17.7674C7.53232 17.6265 7.47491 18.2457 7.48361 18.8025C9.17106 18.5705 8.89968 19.8214 8.26645 19.734C6.85211 19.543 5.91792 20.6298 7.46795 21.0456C8.05595 21.2027 9.16411 20.9386 9.45985 22.1449C9.69992 23.1246 9.00406 23.8563 8.13075 24.1596C8.15163 24.7004 8.27515 24.8538 8.17772 25.1197C8.10292 25.3232 7.53579 25.6426 7.46621 24.3024C5.38037 24.4773 5.54912 22.6642 6.5181 23.1657L6.51984 23.1674Z" fill="#F2F3F4"/>
<path d="M51.3408 11.0075H35.455C34.4338 11.0075 33.629 11.3079 33.039 11.9087C32.449 12.5095 32.1539 13.3307 32.1539 14.3688V38.4085C32.1539 39.4804 32.4088 40.2447 32.9203 40.698C33.43 41.153 34.2907 41.3806 35.5039 41.3806C36.0782 41.3806 36.6369 41.3326 37.178 41.2348C37.7192 41.137 38.119 41.0553 38.3738 40.9913V28.9857H48.1829C48.8532 28.9857 49.3874 28.767 49.7854 28.328C50.1834 27.8889 50.3842 27.2312 50.3842 26.3549C50.3842 25.8358 50.3126 25.3648 50.1695 24.9417C50.0263 24.5204 49.8745 24.1792 49.7156 23.9179H38.2796V16.1713H49.8116C50.482 16.1713 51.0161 15.9437 51.4142 15.4887C51.8122 15.0336 52.0129 14.3688 52.0129 13.4907C52.0129 12.9717 51.9483 12.4917 51.8209 12.0527C51.6935 11.6136 51.5346 11.2652 51.3426 11.0057L51.3408 11.0075Z" fill="#F2F3F4"/>
<path d="M63.1836 11.251C62.6564 10.8297 61.8028 10.6182 60.6244 10.6182C60.0815 10.6182 59.5404 10.6662 58.9974 10.7639C58.4545 10.8617 58.0408 10.9435 57.7528 11.0075V38.4085C57.7528 39.4804 58.0076 40.2447 58.5191 40.698C59.0289 41.153 59.8895 41.3806 61.1027 41.3806C61.6771 41.3806 62.234 41.3326 62.7769 41.2348C63.3198 41.137 63.7178 41.0553 63.9727 40.9913V13.5903C63.9727 12.4544 63.7091 11.674 63.1836 11.251Z" fill="#F2F3F4"/>
<path d="M97.0026 17.5178C95.7108 15.2123 93.9634 13.4667 91.762 12.2793C89.5607 11.0937 87.1045 10.5 84.3935 10.5C81.6824 10.5 79.1843 11.0937 77.0005 12.2793C74.8149 13.465 73.0761 15.2105 71.7843 17.5178C70.4925 19.8251 69.8466 22.6674 69.8466 26.0447C69.8466 29.4221 70.4768 32.2733 71.7372 34.5966C72.9976 36.9198 74.7276 38.6743 76.9289 39.8581C79.1302 41.0438 81.6178 41.6375 84.3935 41.6375C87.1691 41.6375 89.648 41.0438 91.8336 39.8581C94.0175 38.6725 95.7492 36.9181 97.0253 34.5966C98.3014 32.2751 98.9386 29.4239 98.9386 26.0447C98.9386 22.6656 98.2927 19.8251 97.0009 17.5178H97.0026ZM90.3271 33.7913C88.859 35.5458 86.8811 36.4221 84.3935 36.4221C81.9059 36.4221 79.9664 35.5458 78.4843 33.7913C77.0005 32.0369 76.2585 29.4541 76.2585 26.0447C76.2585 22.6354 77.0005 20.0935 78.4843 18.3212C79.9681 16.5508 81.9373 15.6656 84.3935 15.6656C86.8497 15.6656 88.859 16.5597 90.3271 18.3461C91.7935 20.1326 92.5284 22.6994 92.5284 26.0447C92.5284 29.3901 91.7935 32.0387 90.3271 33.7913Z" fill="#F2F3F4"/>
</g>
<defs>
<clipPath id="clip0_295_67">
<rect width="99" height="42" fill="white"/>
</clipPath>
</defs>
</svg>
