<svg width="150" height="150" viewBox="0 0 150 150" fill="none" xmlns="http://www.w3.org/2000/svg">
<g clip-path="url(#clip0_172_359)">
<path d="M75 4C114.15 4 146 35.85 146 75C146 114.15 114.15 146 75 146C35.85 146 4 114.15 4 75C4 35.85 35.85 4 75 4ZM75 0C33.58 0 0 33.58 0 75C0 116.42 33.58 150 75 150C116.42 150 150 116.42 150 75C150 33.58 116.42 0 75 0Z" fill="#B91428"/>
<path d="M90.6499 38.36H57.7299C57.3299 38.37 56.9499 38.52 56.6499 38.78L40.5899 54.58C40.3199 54.87 40.1699 55.26 40.1699 55.65V105.31C40.1699 105.31 40.1699 105.32 40.1699 105.33C40.2299 108.83 43.0899 111.63 46.5699 111.63C46.6099 111.63 46.6399 111.63 46.6799 111.63H90.6399C90.6399 111.63 90.6499 111.63 90.6599 111.63C94.1599 111.63 97.0099 108.81 97.0399 105.31V91.69C97.0499 90.89 96.4299 90.23 95.6299 90.19C94.7999 90.19 94.1299 90.86 94.1299 91.69V105.31C94.0799 107.21 92.5299 108.72 90.6399 108.72H46.6799C46.6799 108.72 46.6199 108.72 46.5999 108.72C44.6999 108.72 43.1399 107.21 43.0899 105.31V56.96H52.3899C55.8599 56.94 58.6599 54.11 58.6399 50.64V41.25H90.6499C92.5799 41.25 94.1499 42.81 94.1599 44.74V66.17L81.3199 88.32C81.2199 88.53 81.1599 88.75 81.1599 88.98L80.8299 95.63C77.8299 95.46 75.8399 94.05 74.2599 92.97C73.1199 92.17 71.9599 91.49 70.8799 91.49C69.9999 91.49 69.1699 91.94 68.4399 93.14C67.6599 94.42 67.2399 94.98 66.9899 94.98C66.6299 94.98 66.6399 93.8 66.4399 91.98C65.9499 87.71 64.9099 85.96 63.5999 85.96C62.0599 85.96 60.1399 88.39 58.2899 91.98C57.0399 94.48 56.3899 95.59 54.7799 95.59C54.4699 95.59 54.1199 95.55 53.7199 95.47C53.6899 95.47 53.6599 95.46 53.6399 95.45C53.5499 95.43 53.4499 95.42 53.3599 95.42C52.6999 95.42 52.1199 95.88 51.9799 96.55C51.8199 97.35 52.3399 98.13 53.1399 98.29C53.7399 98.42 54.2899 98.48 54.7999 98.48C58.2199 98.48 59.6399 95.77 60.8699 93.31C61.8299 91.49 62.4299 89.76 62.8599 89.76C63.1299 89.76 63.3399 90.47 63.5399 92.32C63.9899 96.25 65.0299 98.7 66.6499 98.7C67.7799 98.7 69.1899 97.5 70.8699 94.76C70.9799 94.59 71.0999 94.52 71.2399 94.52C71.6499 94.52 72.1799 95.11 72.6199 95.42C74.4399 96.63 78.1599 98.7 80.9599 98.7C81.7299 98.7 82.4399 98.54 83.0199 98.17L89.6699 93.85C89.8799 93.73 90.0499 93.56 90.1699 93.35C96.5799 82.32 102.98 71.25 109.3 60.12L109.97 60.54C110.04 60.57 110.1 60.62 110.16 60.66C110.6 61.02 110.67 61.67 110.3 62.12L101.98 76.63C101.65 77.36 101.9 78.22 102.57 78.66C102.59 78.66 102.6 78.68 102.62 78.69C102.83 78.8 103.06 78.86 103.29 78.86C103.81 78.86 104.31 78.58 104.57 78.09L112.89 63.61C112.89 63.61 112.93 63.55 112.94 63.52C114.04 61.56 113.33 59.08 111.37 57.98L110.78 57.65L111.45 56.49C111.48 56.43 111.52 56.37 111.55 56.32C112.85 53.95 111.98 50.99 109.62 49.69C109.6 49.68 109.57 49.66 109.55 49.65C108.75 49.19 107.89 48.97 107.03 48.97C105.28 48.97 103.57 49.88 102.64 51.51L97.0599 61.23V44.78C97.0599 41.25 94.1899 38.38 90.6599 38.38L90.6499 38.36ZM45.2299 54.07L55.7099 43.76V50.66C55.7099 50.66 55.7099 50.68 55.7099 50.69C55.7199 52.54 54.2299 54.05 52.3799 54.07H45.2299ZM105.79 60.46L102.04 58.3L105.21 52.9C105.24 52.84 105.28 52.78 105.32 52.72C105.73 52.1 106.41 51.76 107.1 51.76C107.5 51.76 107.91 51.87 108.27 52.11C109.25 52.76 109.52 54.07 108.88 55.05L105.8 60.45L105.79 60.46ZM83.8799 94.19L84.1299 89.54L100.64 60.79L104.38 62.95L87.8699 91.62L83.8799 94.19ZM67.6799 54.16C67.6799 54.16 67.6099 54.16 67.5699 54.16C66.7699 54.22 66.1699 54.92 66.2299 55.72C66.2899 56.49 66.9299 57.07 67.6799 57.07C67.7199 57.07 67.7499 57.07 67.7899 57.07H80.5199C81.2399 57.02 81.8099 56.44 81.8599 55.73C81.9199 54.93 81.3199 54.23 80.5199 54.17H67.7899C67.7899 54.17 67.7199 54.17 67.6799 54.17V54.16ZM80.5099 64.42H67.7799C67.7799 64.42 67.7499 64.42 67.7299 64.42C66.8999 64.45 66.2499 65.14 66.2799 65.97C66.3099 66.76 66.9599 67.38 67.7499 67.38C67.7499 67.38 67.7699 67.38 67.7799 67.38H80.4999V67.33C81.2799 67.31 81.8999 66.69 81.9199 65.92C81.9199 65.12 81.2999 64.46 80.4999 64.42H80.5099ZM80.5099 74.75H53.8799C53.0499 74.75 52.3799 75.42 52.3799 76.25C52.4099 77.05 53.0599 77.68 53.8599 77.68C53.8699 77.68 53.8799 77.68 53.8899 77.68H80.4999V77.66C81.2799 77.63 81.8999 77.02 81.9199 76.24C81.9199 75.44 81.2999 74.78 80.4999 74.74L80.5099 74.75Z" fill="#B91428"/>
</g>
<defs>
<clipPath id="clip0_172_359">
<rect width="150" height="150" fill="white"/>
</clipPath>
</defs>
</svg>
