<svg width="150" height="150" viewBox="0 0 150 150" fill="none" xmlns="http://www.w3.org/2000/svg">
<g clip-path="url(#clip0_171_337)">
<path d="M75 4C114.15 4 146 35.85 146 75C146 114.15 114.15 146 75 146C35.85 146 4 114.15 4 75C4 35.85 35.85 4 75 4ZM75 0C33.58 0 0 33.58 0 75C0 116.42 33.58 150 75 150C116.42 150 150 116.42 150 75C150 33.58 116.42 0 75 0Z" fill="#B91428"/>
<path d="M75 33.55C72.92 33.55 70.84 34.21 69.06 35.54L63.9 39.4C62.71 40.29 61.47 40.74 59.98 40.83L53.55 41.19C49.12 41.44 45.46 44.5 44.45 48.83L42.98 55.1C42.64 56.55 41.98 57.69 40.9 58.71L36.2 63.12C32.96 66.16 32.14 70.86 34.14 74.82L37.05 80.57C37.72 81.9 37.95 83.2 37.77 84.68L37.01 91.08C36.48 95.49 38.87 99.62 42.95 101.37L48.87 103.91C50.24 104.49 51.25 105.35 52.06 106.59L55.59 111.98C57.47 114.85 60.57 116.48 63.84 116.48C64.8 116.48 65.78 116.34 66.75 116.05L72.92 114.19C73.63 113.98 74.32 113.87 75 113.87C75.68 113.87 76.37 113.98 77.08 114.19L83.24 116.05C84.21 116.34 85.18 116.48 86.15 116.48C89.42 116.48 92.53 114.85 94.4 111.98L97.93 106.59C98.74 105.35 99.76 104.5 101.12 103.91L107.04 101.37C111.12 99.62 113.51 95.49 112.98 91.08L112.22 84.68C112.04 83.21 112.27 81.9 112.94 80.57L115.85 74.82C117.85 70.86 117.02 66.16 113.79 63.12L109.09 58.71C108.01 57.69 107.34 56.55 107.01 55.1L105.54 48.83C104.53 44.51 100.87 41.44 96.44 41.19L90.01 40.83C88.53 40.75 87.28 40.29 86.09 39.4L80.93 35.54C79.15 34.21 77.07 33.55 74.99 33.55H75ZM63.8 113.75C61.43 113.75 59.23 112.58 57.85 110.47L54.32 105.08C53.22 103.39 51.78 102.19 49.93 101.39L44.01 98.85C41 97.56 39.3 94.62 39.69 91.37L40.45 84.97C40.69 82.97 40.36 81.12 39.45 79.32L36.54 73.57C35.06 70.65 35.65 67.31 38.04 65.07L42.74 60.66C44.21 59.28 45.15 57.66 45.61 55.69L47.08 49.42C47.83 46.23 50.42 44.05 53.7 43.87L60.13 43.51C62.14 43.4 63.91 42.76 65.52 41.55L70.68 37.69C71.99 36.71 73.49 36.22 75 36.22C76.51 36.22 78.01 36.71 79.32 37.69L84.48 41.55C86.09 42.76 87.86 43.4 89.87 43.51L96.3 43.87C99.57 44.05 102.17 46.23 102.92 49.42L104.39 55.69C104.85 57.65 105.79 59.28 107.26 60.66L111.96 65.07C114.35 67.31 114.94 70.65 113.46 73.57L110.55 79.32C109.64 81.12 109.31 82.97 109.55 84.97L110.31 91.37C110.7 94.62 109 97.56 105.99 98.85L100.07 101.39C98.22 102.18 96.78 103.39 95.68 105.08L92.15 110.47C90.77 112.58 88.57 113.75 86.2 113.75C85.49 113.75 84.76 113.64 84.03 113.42L77.86 111.56C76.9 111.27 75.94 111.12 74.99 111.12C74.04 111.12 73.09 111.27 72.12 111.56L65.95 113.42C65.22 113.64 64.49 113.75 63.78 113.75H63.8ZM75 47.34C59.75 47.34 47.34 59.75 47.34 75C47.34 90.25 59.75 102.66 75 102.66C90.25 102.66 102.66 90.25 102.66 75C102.66 59.75 90.25 47.34 75 47.34ZM75 99.95C61.24 99.95 50.05 88.76 50.05 75C50.05 61.24 61.24 50.05 75 50.05C88.76 50.05 99.95 61.24 99.95 75C99.95 88.76 88.76 99.95 75 99.95ZM86.52 62.46H86.5C85.15 62.46 83.88 63 82.93 63.96L71.71 75.29L67.08 70.66C66.12 69.7 64.85 69.18 63.5 69.18C62.15 69.18 60.87 69.71 59.92 70.66C57.94 72.64 57.94 75.85 59.92 77.83L68.15 86.06C69.14 87.05 70.44 87.54 71.73 87.54C73.02 87.54 74.33 87.05 75.31 86.06C78.43 82.94 81.58 79.75 84.62 76.66C86.45 74.8 88.28 72.95 90.11 71.1C92.07 69.12 92.06 65.91 90.09 63.95C89.13 63 87.87 62.48 86.52 62.48V62.46ZM71.71 78.56C72.07 78.56 72.41 78.41 72.67 78.16L84.85 65.86C85.29 65.41 85.88 65.17 86.51 65.17C87.14 65.17 87.73 65.41 88.17 65.86C89.09 66.77 89.09 68.27 88.17 69.19C86.33 71.04 84.5 72.9 82.67 74.76C79.63 77.84 76.48 81.03 73.37 84.15C72.91 84.61 72.3 84.84 71.7 84.84C71.1 84.84 70.49 84.61 70.03 84.15L61.8 75.92C60.88 75 60.88 73.5 61.8 72.58C62.25 72.13 62.84 71.89 63.47 71.89C64.1 71.89 64.69 72.14 65.14 72.58L70.74 78.18C70.99 78.43 71.34 78.58 71.7 78.58L71.71 78.56Z" fill="#B91428"/>
</g>
<defs>
<clipPath id="clip0_171_337">
<rect width="150" height="150" fill="white"/>
</clipPath>
</defs>
</svg>
